<?xml version="1.0" encoding="utf-8"?>
<!-- Generator: Adobe Illustrator 19.1.1, SVG Export Plug-In . SVG Version: 6.00 Build 0)  -->
<svg version="1.1" id="Layer_1" xmlns="http://www.w3.org/2000/svg" xmlns:xlink="http://www.w3.org/1999/xlink" x="0px" y="0px"
	 viewBox="-55 342.7 500 108.3" style="enable-background:new -55 342.7 500 108.3;" xml:space="preserve">
<style type="text/css">
	.st0{fill:#FDE9E8;}
</style>
<polygon class="st0" points="-2.2,347.4 -7.4,394 -8.1,394 -13.4,347.4 -25,347.4 -30.6,394 -31.2,394 -36.2,347.4 -49.8,347.4 
	-38.1,429 -25.1,429 -19.8,381.1 -19.2,381.1 -14,429 -1,429 10.7,347.4 "/>
<path class="st0" d="M199.8,395.6c-3.7-3-7.6-6.2-7.6-10.2c0-2.3,1.3-4.5,3.8-4.5c3.7,0,3.7,5,3.7,7.5l10.8-2
	c-0.3-9.9-4.3-15.6-14.2-15.6c-8.1,0-15.6,4.6-15.6,15.2c0,9.6,5.9,13.8,11.1,17.6c4.1,3.1,7.9,5.9,7.9,10.7c0,2.4-1.2,4.7-4,4.7
	c-4.1,0-4.8-4-4.9-8.6l-11.1,1.9c0.3,10.8,5.5,16.8,15.4,16.8c8.1,0,15.9-3.8,15.9-15.6C211.1,404.2,205,399.6,199.8,395.6z"/>
<path class="st0" d="M300.8,370.9c-12.7,0-17.5,12.6-17.5,29.1c0,19.3,5.8,29,17.5,29c9.4,0,15.3-5.7,16.5-17.5l-11.2-2.1
	c0,5.2-1.4,9.3-4.8,9.3c-4.3,0-6.1-6.3-6.1-15.3h22.3c0-1.5,0.1-3.4,0.1-4.8C317.5,382.4,314.6,370.9,300.8,370.9z M295.2,394.6
	c0.2-5.3,0.8-13.4,5.6-13.4c4.5,0,4.8,7.8,4.8,13.4H295.2z"/>
<polygon class="st0" points="274,347.4 268.7,394 268.1,394 262.7,347.4 251.2,347.4 245.6,394 244.9,394 240,347.4 226.4,347.4 
	238.1,429 251.1,429 256.4,381.1 257,381.1 262.2,429 275.2,429 286.9,347.4 "/>
<path class="st0" d="M25.1,370.9c-12.6,0-17.6,9.7-17.6,29c0,19.4,5,29.1,17.6,29.1c12.6,0,17.6-9.7,17.6-29.1
	S37.7,370.9,25.1,370.9z M25.1,418.6c-4.3,0-5.5-5.2-5.5-18.7c0-13.5,1.2-18.6,5.5-18.6c4.3,0,5.5,5.2,5.5,18.6
	C30.6,413.4,29.4,418.6,25.1,418.6z"/>
<path class="st0" d="M429.8,372.1l-4.1,24.6c-0.6,3.4-1.3,6.9-1.7,10.2h-0.7c-0.3-3.2-0.9-6.7-1.4-10l-3.7-24.8h-13v0l11.6,53.7
	c0.5,2.1,0.8,4,0.8,5.5c0,3.8-2.1,5.5-5.7,5.5c-1.4,0-3.2-0.2-3.9-0.5l-2,10.2c2.4,0.5,4.3,0.6,6.1,0.6c10.5,0,14.2-5.3,16.2-14.1
	l13.6-60.9H429.8z"/>
<rect x="391.8" y="355.8" class="st0" width="11.7" height="72"/>
<polygon class="st0" points="378.3,372.1 369,391.9 369,355.8 357.3,355.8 357.3,427.8 369,427.8 369,412 371.7,407 378.2,427.8 
	390.8,427.8 379.1,393.4 390.8,372.1 "/>
<path class="st0" d="M337.5,370.9c-12.7,0-17.5,12.6-17.5,29.1c0,19.3,5.8,29,17.5,29c9.4,0,15.3-5.7,16.5-17.5l-11.2-2.1
	c0,5.2-1.4,9.3-4.8,9.3c-4.3,0-6.1-6.3-6.1-15.3h22.3c0-1.5,0.1-3.4,0.1-4.8C354.3,382.4,351.4,370.9,337.5,370.9z M332,394.6
	c0.2-5.3,0.8-13.4,5.6-13.4c4.5,0,4.8,7.8,4.8,13.4H332z"/>
<path class="st0" d="M183.6,355.9h-11.7v10.5h4.6c-0.1,3.4-1.7,4.9-4.6,5v6.1c9.3-0.3,11.7-7.3,11.7-14.9V355.9z"/>
<path class="st0" d="M86.5,370.9c-5.9,0-8.3,2.9-10.1,7.4H76c-1.4-4.6-4-7.4-9-7.4c-5.5,0-8,2.9-9.6,7.1H57v-5.9H45.7v55.7h11.7
	v-33.9c0-7.8,2-11,4.8-11c3.6,0,3.6,4.5,3.6,10.6v34.3h11.7v-33.9c0-7.8,2-11,4.8-11c3.6,0,3.6,4.5,3.6,10.6v34.3h11.7v-35.9
	C97.5,379.2,95.9,370.9,86.5,370.9z"/>
<path class="st0" d="M118.2,370.9c-12.7,0-17.5,12.6-17.5,29.1c0,19.3,5.8,29,17.5,29c9.4,0,15.3-5.7,16.5-17.5l-11.2-2.1
	c0,5.2-1.4,9.3-4.8,9.3c-4.3,0-6.1-6.3-6.1-15.3h22.3c0-1.5,0.1-3.4,0.1-4.8C135,382.4,132.1,370.9,118.2,370.9z M112.7,394.6
	c0.2-5.3,0.8-13.4,5.6-13.4c4.5,0,4.8,7.8,4.8,13.4H112.7z"/>
<path class="st0" d="M159.6,370.9c-5.9,0-8.2,2.9-10,7.4h-0.4v-6.2h-11.3v55.7h11.7v-33.9c0-7.8,2.1-11,5.2-11
	c3.8,0,3.8,4.5,3.8,10.6v34.3h11.7v-35.2C170.4,379.8,168.8,370.9,159.6,370.9z"/>
</svg>
